<svg width="353" height="96" viewBox="0 0 353 96" fill="none" xmlns="http://www.w3.org/2000/svg">
<path d="M20.48 71.384L5.76 37.016C5.33333 35.9493 4.928 34.84 4.544 33.688C4.16 32.536 3.968 31.6187 3.968 30.936C3.28533 30.9787 2.64533 31.0213 2.048 31.064C1.49333 31.064 0.981333 31.0853 0.512 31.128V26.2H19.392V30.424C17.8133 30.3813 16.5973 30.7227 15.744 31.448C14.9333 32.1733 14.912 33.4747 15.68 35.352C16.6613 37.7413 17.6427 40.152 18.624 42.584C19.6053 45.016 20.5867 47.4267 21.568 49.816C22.2933 51.608 22.912 53.1867 23.424 54.552C23.936 55.8747 24.5333 57.3467 25.216 58.968H25.28C25.7493 57.688 26.24 56.2587 26.752 54.68C27.3067 53.1013 27.84 51.5867 28.352 50.136C28.9067 48.6427 29.44 47.1493 29.952 45.656C30.5067 44.1627 31.0613 42.6907 31.616 41.24C32.1707 39.7467 32.704 38.2533 33.216 36.76C33.4293 36.0347 33.7707 35.0533 34.24 33.816C34.752 32.5787 35.2853 31.6187 35.84 30.936C35.1573 30.9787 34.2827 31.0213 33.216 31.064C32.1493 31.064 31.3813 31.0853 30.912 31.128V26.2H45.312V30.424C43.8613 30.4667 42.6027 31 41.536 32.024C40.4693 33.048 39.4667 34.7973 38.528 37.272C37.8027 39.1493 37.0773 41.048 36.352 42.968C35.6693 44.8453 34.9653 46.744 34.24 48.664C33.5573 50.5413 32.8533 52.44 32.128 54.36C31.4027 56.2373 30.6773 58.136 29.952 60.056C29.2693 61.9333 28.5653 63.8107 27.84 65.688C27.1573 67.5653 26.4533 69.464 25.728 71.384H20.48ZM58.042 72.024C54.9273 72.024 52.1753 71.3413 49.786 69.976C47.3967 68.568 45.5407 66.6053 44.218 64.088C42.8953 61.528 42.234 58.52 42.234 55.064C42.234 52.0773 42.8953 49.2827 44.218 46.68C45.5407 44.0773 47.3967 41.9867 49.786 40.408C52.218 38.7867 55.034 37.976 58.234 37.976C60.026 37.976 61.7753 38.232 63.482 38.744C65.1887 39.2133 66.7247 40.0453 68.09 41.24C69.498 42.4347 70.6073 44.056 71.418 46.104C72.2713 48.152 72.6767 50.712 72.634 53.784L51.642 54.168C51.642 56.472 51.9193 58.5413 52.474 60.376C53.0713 62.2107 54.0313 63.6613 55.354 64.728C56.6767 65.7947 58.4473 66.328 60.666 66.328C61.5193 66.328 62.4793 66.1787 63.546 65.88C64.6553 65.5813 65.7647 65.0907 66.874 64.408C68.026 63.6827 69.0927 62.7227 70.074 61.528L72.954 64.216C71.418 66.392 69.7753 68.056 68.026 69.208C66.2767 70.3173 64.5273 71.064 62.778 71.448C61.0713 71.832 59.4927 72.024 58.042 72.024ZM52.026 49.688H63.802C63.7593 47.896 63.5033 46.488 63.034 45.464C62.6073 44.3973 62.01 43.6293 61.242 43.16C60.474 42.6907 59.578 42.456 58.554 42.456C56.6767 42.456 55.2047 43.1387 54.138 44.504C53.0713 45.8267 52.3673 47.5547 52.026 49.688ZM77.3115 66.84C78.5062 66.84 79.3595 66.6053 79.8715 66.136C80.3835 65.6667 80.7035 65.0053 80.8315 64.152C81.0022 63.256 81.0875 62.2533 81.0875 61.144V50.392C81.0875 49.624 81.1088 48.7707 81.1515 47.832C81.1942 46.8507 81.2582 45.8907 81.3435 44.952C80.6608 44.9947 79.8502 45.0373 78.9115 45.08C78.0155 45.08 77.3328 45.1013 76.8635 45.144V40.28H79.4235C81.0875 40.28 82.6022 40.0667 83.9675 39.64C85.3755 39.2133 86.2928 38.7867 86.7195 38.36H89.8555C89.9408 38.7867 90.0048 39.5973 90.0475 40.792C90.0902 41.944 90.1115 42.968 90.1115 43.864C91.2635 42.456 92.3515 41.3253 93.3755 40.472C94.3995 39.6187 95.4022 39 96.3835 38.616C97.4075 38.1893 98.4315 37.976 99.4555 37.976C100.949 37.976 102.25 38.4027 103.36 39.256C104.469 40.0667 105.024 41.4107 105.024 43.288C105.024 43.928 104.874 44.6107 104.576 45.336C104.277 46.0187 103.808 46.5947 103.168 47.064C102.528 47.5333 101.653 47.768 100.544 47.768C99.6902 47.768 98.8155 47.512 97.9195 47C97.0235 46.488 96.5115 45.5067 96.3835 44.056C95.5302 44.056 94.6768 44.4187 93.8235 45.144C92.9702 45.8267 92.2022 46.6587 91.5195 47.64C90.8795 48.5787 90.4315 49.4533 90.1755 50.264V60.696C90.1755 61.2933 90.1542 62.1467 90.1115 63.256C90.0688 64.3227 90.0048 65.3467 89.9195 66.328C90.6022 66.2427 91.3488 66.2 92.1595 66.2C93.0128 66.1573 93.6528 66.136 94.0795 66.136V71H77.3115V66.84ZM119.914 72.024C117.354 72.024 115.092 71.3627 113.13 70.04C111.21 68.7173 109.695 66.84 108.586 64.408C107.519 61.976 106.986 59.1173 106.986 55.832C106.986 52.376 107.647 49.304 108.97 46.616C110.292 43.928 112.148 41.816 114.538 40.28C116.927 38.744 119.7 37.976 122.858 37.976C124.01 37.976 125.034 38.104 125.93 38.36C126.868 38.5733 127.743 38.8293 128.554 39.128V34.904C128.554 34.3067 128.575 33.4533 128.618 32.344C128.66 31.2347 128.724 30.2107 128.81 29.272C128.127 29.3147 127.316 29.3573 126.378 29.4C125.439 29.4427 124.735 29.464 124.266 29.464V24.6C126.271 24.6 127.935 24.4933 129.258 24.28C130.623 24.0667 131.69 23.8107 132.458 23.512C133.268 23.2133 133.823 22.936 134.122 22.68H137.578V60.696C137.578 61.2933 137.556 62.1467 137.514 63.256C137.471 64.3227 137.407 65.3467 137.322 66.328C138.047 66.2427 138.815 66.2 139.626 66.2C140.436 66.1573 141.055 66.136 141.482 66.136V71H129.322C129.279 70.5307 129.215 70.04 129.13 69.528C129.087 69.016 129.023 68.5253 128.938 68.056C127.53 69.5067 126.079 70.5307 124.586 71.128C123.092 71.7253 121.535 72.024 119.914 72.024ZM123.242 66.2C124.351 66.2 125.375 65.9227 126.314 65.368C127.252 64.7707 127.999 64.024 128.554 63.128C128.554 62.488 128.554 61.848 128.554 61.208C128.554 60.568 128.554 59.928 128.554 59.288V43.928C128.127 43.5867 127.487 43.3093 126.634 43.096C125.78 42.84 124.906 42.712 124.01 42.712C122.047 42.7547 120.511 43.3733 119.402 44.568C118.292 45.7627 117.503 47.2773 117.034 49.112C116.607 50.9467 116.394 52.8667 116.394 54.872C116.394 56.664 116.607 58.4347 117.034 60.184C117.503 61.9333 118.228 63.384 119.21 64.536C120.234 65.6453 121.578 66.2 123.242 66.2ZM160.855 72.024C157.74 72.024 154.988 71.3413 152.599 69.976C150.209 68.568 148.353 66.6053 147.031 64.088C145.708 61.528 145.047 58.52 145.047 55.064C145.047 52.0773 145.708 49.2827 147.031 46.68C148.353 44.0773 150.209 41.9867 152.599 40.408C155.031 38.7867 157.847 37.976 161.047 37.976C162.839 37.976 164.588 38.232 166.295 38.744C168.001 39.2133 169.537 40.0453 170.903 41.24C172.311 42.4347 173.42 44.056 174.231 46.104C175.084 48.152 175.489 50.712 175.447 53.784L154.455 54.168C154.455 56.472 154.732 58.5413 155.287 60.376C155.884 62.2107 156.844 63.6613 158.167 64.728C159.489 65.7947 161.26 66.328 163.479 66.328C164.332 66.328 165.292 66.1787 166.359 65.88C167.468 65.5813 168.577 65.0907 169.687 64.408C170.839 63.6827 171.905 62.7227 172.887 61.528L175.767 64.216C174.231 66.392 172.588 68.056 170.839 69.208C169.089 70.3173 167.34 71.064 165.591 71.448C163.884 71.832 162.305 72.024 160.855 72.024ZM154.839 49.688H166.615C166.572 47.896 166.316 46.488 165.847 45.464C165.42 44.3973 164.823 43.6293 164.055 43.16C163.287 42.6907 162.391 42.456 161.367 42.456C159.489 42.456 158.017 43.1387 156.951 44.504C155.884 45.8267 155.18 47.5547 154.839 49.688ZM178.844 88.344C176.455 88.344 174.705 87.7893 173.596 86.68C172.444 85.6133 171.868 84.4187 171.868 83.096C171.868 81.9867 172.231 80.984 172.956 80.088C173.639 79.2347 174.62 78.7867 175.9 78.744C177.052 78.7013 177.991 79.0427 178.716 79.768C179.441 80.4933 179.804 81.4107 179.804 82.52C179.804 82.6907 179.783 82.8613 179.74 83.032C179.74 83.2027 179.719 83.3947 179.676 83.608C179.932 83.7787 180.295 83.864 180.764 83.864C181.575 83.864 182.151 83.5867 182.492 83.032C182.876 82.52 183.132 81.88 183.26 81.112C183.388 80.344 183.452 79.6613 183.452 79.064L183.26 50.52C183.26 49.752 183.281 48.8773 183.324 47.896C183.367 46.872 183.431 45.8907 183.516 44.952C182.833 44.9947 182.023 45.0373 181.084 45.08C180.188 45.08 179.505 45.1013 179.036 45.144V40.28C181.041 40.28 182.705 40.1733 184.028 39.96C185.393 39.7467 186.46 39.4907 187.228 39.192C188.039 38.8933 188.593 38.616 188.892 38.36H192.348V70.872C192.348 74.7973 191.751 78.0613 190.556 80.664C189.404 83.2667 187.804 85.1867 185.756 86.424C183.708 87.704 181.404 88.344 178.844 88.344ZM187.804 33.304C186.353 33.304 185.159 32.792 184.22 31.768C183.281 30.744 182.812 29.5067 182.812 28.056C182.812 26.6053 183.303 25.368 184.284 24.344C185.265 23.32 186.417 22.808 187.74 22.808C189.105 22.808 190.236 23.32 191.132 24.344C192.071 25.368 192.54 26.6053 192.54 28.056C192.54 29.5067 192.113 30.744 191.26 31.768C190.407 32.792 189.255 33.304 187.804 33.304ZM217.229 71C217.143 70.4027 217.079 69.912 217.037 69.528C217.037 69.1013 217.015 68.6107 216.973 68.056C215.522 69.5067 213.986 70.5307 212.365 71.128C210.743 71.7253 209.101 72.024 207.437 72.024C204.706 72.024 202.573 71.2133 201.036 69.592C199.501 67.9707 198.733 65.944 198.733 63.512C198.733 61.464 199.245 59.7147 200.269 58.264C201.335 56.8133 202.722 55.64 204.429 54.744C206.178 53.8053 208.098 53.1013 210.189 52.632C212.322 52.12 214.455 51.8213 216.589 51.736V48.408C216.589 47.2987 216.439 46.296 216.141 45.4C215.885 44.504 215.415 43.8 214.733 43.288C214.093 42.776 213.175 42.5413 211.981 42.584C211.17 42.6267 210.381 42.7973 209.613 43.096C208.845 43.3947 208.183 43.8213 207.629 44.376C207.97 44.76 208.183 45.1867 208.269 45.656C208.354 46.0827 208.397 46.4667 208.397 46.808C208.397 47.6613 208.055 48.5573 207.373 49.496C206.69 50.392 205.602 50.8187 204.109 50.776C202.829 50.7333 201.847 50.2853 201.165 49.432C200.482 48.5787 200.141 47.576 200.141 46.424C200.141 44.7173 200.738 43.2453 201.933 42.008C203.17 40.728 204.813 39.7467 206.861 39.064C208.909 38.3387 211.17 37.976 213.645 37.976C217.399 37.976 220.301 38.9573 222.349 40.92C224.439 42.84 225.485 45.9333 225.485 50.2C225.485 51.6507 225.485 52.888 225.485 53.912C225.485 54.936 225.463 55.96 225.421 56.984C225.421 58.008 225.421 59.2453 225.421 60.696C225.421 61.2933 225.399 62.1467 225.357 63.256C225.314 64.3227 225.25 65.3467 225.165 66.328C225.89 66.2427 226.658 66.2 227.469 66.2C228.279 66.1573 228.898 66.136 229.325 66.136V71H217.229ZM216.525 56.28C215.33 56.408 214.199 56.6213 213.133 56.92C212.066 57.2187 211.127 57.624 210.317 58.136C209.549 58.648 208.93 59.2667 208.461 59.992C208.034 60.7173 207.821 61.528 207.821 62.424C207.863 63.6187 208.247 64.472 208.973 64.984C209.698 65.496 210.53 65.752 211.469 65.752C212.45 65.752 213.367 65.5387 214.221 65.112C215.074 64.6853 215.842 64.1307 216.525 63.448C216.525 63.0213 216.525 62.616 216.525 62.232C216.525 61.8053 216.525 61.3787 216.525 60.952C216.525 60.184 216.525 59.416 216.525 58.648C216.525 57.8373 216.525 57.048 216.525 56.28ZM232.999 66.84C234.194 66.84 235.047 66.6053 235.559 66.136C236.071 65.6667 236.391 65.0053 236.519 64.152C236.69 63.256 236.775 62.2533 236.775 61.144V50.392C236.775 49.624 236.796 48.7707 236.839 47.832C236.882 46.8507 236.946 45.8907 237.031 44.952C236.348 44.9947 235.538 45.0373 234.599 45.08C233.703 45.08 233.02 45.1013 232.551 45.144V40.28H235.111C236.775 40.28 238.29 40.0667 239.655 39.64C241.063 39.2133 241.98 38.7867 242.407 38.36H245.543C245.628 38.7867 245.692 39.5973 245.735 40.792C245.778 41.944 245.799 42.968 245.799 43.864C246.951 42.456 248.039 41.3253 249.063 40.472C250.087 39.6187 251.09 39 252.071 38.616C253.095 38.1893 254.119 37.976 255.143 37.976C256.636 37.976 257.938 38.4027 259.047 39.256C260.156 40.0667 260.711 41.4107 260.711 43.288C260.711 43.928 260.562 44.6107 260.263 45.336C259.964 46.0187 259.495 46.5947 258.855 47.064C258.215 47.5333 257.34 47.768 256.231 47.768C255.378 47.768 254.503 47.512 253.607 47C252.711 46.488 252.199 45.5067 252.071 44.056C251.218 44.056 250.364 44.4187 249.511 45.144C248.658 45.8267 247.89 46.6587 247.207 47.64C246.567 48.5787 246.119 49.4533 245.863 50.264V60.696C245.863 61.2933 245.842 62.1467 245.799 63.256C245.756 64.3227 245.692 65.3467 245.607 66.328C246.29 66.2427 247.036 66.2 247.847 66.2C248.7 66.1573 249.34 66.136 249.767 66.136V71H232.999V66.84Z" fill="#253528"/>
<path d="M312.473 54.385L314.263 52.6641L315.085 51.8733L322.106 45.1224L322.608 44.6397L323.235 44.9432C325.936 46.251 328.914 46.9494 331.941 46.9836C334.959 46.9906 337.918 46.196 340.492 44.6907L340.493 44.6896C348.331 40.1276 352.738 29.4107 351.899 15.6903L351.899 15.6898C351.874 15.2873 351.697 14.8997 351.388 14.6033C351.079 14.3059 350.66 14.1223 350.209 14.0969L350.209 14.0969C335.898 13.291 324.729 17.5436 319.988 25.0735L319.988 25.0737C316.923 29.9377 316.811 35.8389 319.729 41.5878L320.064 42.2481L319.53 42.7612L314.494 47.604L313.801 48.2704L313.108 47.604L308.834 43.4949L308.316 42.9974L308.622 42.348C310.593 38.1626 310.429 33.9008 308.195 30.3576L308.194 30.3563C304.672 24.7527 296.413 21.5501 285.762 22.1501C285.312 22.1759 284.894 22.3595 284.585 22.6564C284.277 22.9522 284.1 23.3389 284.075 23.7407L312.473 54.385ZM312.473 54.385H314.956M312.473 54.385H314.956M314.956 54.385H341.802C342.291 54.385 342.754 54.5724 343.088 54.8944C343.422 55.215 343.602 55.6414 343.602 56.0772C343.602 56.5131 343.422 56.9394 343.088 57.2601C342.754 57.5821 342.291 57.7695 341.802 57.7695H338.448H337.653L337.474 58.5444L332.85 78.5581L332.849 78.5626C332.631 79.5287 332.072 80.4015 331.257 81.0304C330.441 81.6599 329.419 82.0046 328.362 81.9999H328.358L304.847 81.9999L304.843 82C303.786 82.0046 302.764 81.6599 301.948 81.0304C301.133 80.4015 300.574 79.5287 300.356 78.5626L300.355 78.5581L295.731 58.5444L295.552 57.7695H294.757H291.4C290.91 57.7695 290.448 57.5821 290.113 57.2601C289.78 56.9394 289.6 56.5131 289.6 56.0772C289.6 55.6414 289.78 55.215 290.113 54.8944C290.448 54.5724 290.91 54.385 291.4 54.385H307.038H307.441L307.732 54.1058L310.532 51.4135L311.28 50.6936L310.532 49.9727L306.276 45.8703L305.79 45.402L305.174 45.6774C303.27 46.5284 301.197 46.9799 299.094 47.0004C296.803 47.0045 294.557 46.3988 292.606 45.2535L292.602 45.2512M314.956 54.385L292.602 45.2512M292.602 45.2512C286.764 41.8583 283.45 33.9381 284.075 23.741L292.602 45.2512ZM348.402 18.3754L348.389 17.4016L347.415 17.3889C336.179 17.2426 327.048 20.5419 323.105 26.7971C320.417 31.0479 320.637 36.1352 323.489 41.042L323.632 41.2874L323.882 41.4213C328.978 44.1464 334.215 44.3669 338.605 41.8006C345.107 38.0255 348.547 29.2268 348.402 18.3754ZM304.497 42.1957L304.767 42.0565L304.914 41.7906C306.759 38.4532 306.928 34.9887 305.095 32.0814C302.382 27.7711 296.178 25.5135 288.607 25.4623L287.592 25.4554L287.6 26.4696C287.653 33.7829 290.018 39.7636 294.494 42.3726C297.483 44.115 301.042 43.9758 304.497 42.1957ZM328.358 78.6154H329.153L329.332 77.84L333.676 58.9941L333.958 57.7695H332.701H300.5H299.243L299.526 58.9943L303.873 77.8402L304.052 78.6154H304.847H328.358Z" fill="#253528" stroke="#253528" stroke-width="2"/>
</svg>
